<?xml version="1.0" encoding="UTF-8" standalone="no"?>
<!DOCTYPE svg PUBLIC "-//W3C//DTD SVG 1.1//EN" "http://www.w3.org/Graphics/SVG/1.1/DTD/svg11.dtd">
<svg width="100%" height="100%" id="Layer_1" data-name="Layer 1" viewBox="0 0 1001 783" version="1.1" xmlns="http://www.w3.org/2000/svg" xmlns:xlink="http://www.w3.org/1999/xlink" xml:space="preserve" xmlns:serif="http://www.serif.com/" >
    <path fill="#FFFFFF" d="M553.875,632.571L567.884,627.131C567.884,627.131 588.94,642.044 611.341,650.542C660.03,669.007 666.181,693.68 670.67,711.697C671.541,715.201 672.368,718.512 673.431,721.293C679.103,736.17 685.326,746.904 694.882,758.003L737.893,737.748C730.866,729.455 721.087,714.1 721.273,693.007C721.419,676.837 731.456,663.936 740.313,652.55C749.261,641.048 756.99,631.115 754.689,619.792C754.428,618.501 750.205,606.681 683.457,589.378C664.971,584.588 632.955,577.931 632.955,577.931C632.955,577.931 635.967,564.803 636.504,564.91C650.287,567.669 668.765,571.64 687.293,576.443C757.295,594.586 767.837,608.754 769.682,617.83C773.076,634.571 762.843,647.722 752.948,660.444C744.551,671.243 736.616,681.44 736.507,693.555C736.275,719.609 754.703,734.781 754.889,734.933L762.945,741.43L691.292,775.182L687.22,770.803C674.012,756.601 666.101,743.826 659.014,725.231C657.68,721.736 656.764,718.071 655.801,714.191C651.633,697.476 641.744,677.506 600.566,661.887C573.409,651.585 553.875,632.571 553.875,632.571Z"/>
    <path fill="#FFFFFF" d="M469.894,617.03C491.9,625.608 537.785,632.498 578.066,616.912C606.757,605.811 625.69,585.647 634.343,556.967L635.932,544.895L650.678,549.582L650.547,550.556L649.213,560.348C639.567,592.821 617.208,616.664 584.546,629.301C557.593,639.728 525.875,641.415 498.98,637.874C484.116,635.917 475.069,632.909 464.77,628.35L469.894,617.03Z"/>
    <path fill="#FFFFFF" d="M756.363,647.659C766.597,652.226 735.904,647.812 749.88,647.831C752.018,647.834 754.181,647.777 756.363,647.659ZM756.363,647.659L759.121,630.608C776.312,645.1 814.041,614.388 822.007,607.977C847.271,587.646 859.429,573.432 865.582,531.56L857.892,525.97L871.854,519.291L871.902,520.701L871.646,533.167C868.374,581.138 854.724,595.681 826.924,619.726C805.922,637.888 779.998,646.378 756.363,647.659Z"/>
    <path fill="#FFFFFF" d="M278.425,160.523C277.934,160.447 277.438,160.37 276.948,160.286C277.44,160.359 277.93,160.439 278.425,160.523Z"/>
    <path fill="#FFFFFF" d="M56.427,281.384L53.276,278.254C53.915,253.987 64.477,230.809 81.468,211.975C77.818,216.38 74.378,221.228 71.199,226.564C59.438,246.327 55.735,264.917 56.427,281.384ZM125.55,179.848C146.913,170.054 171.349,165.376 196.488,168.027C196.773,169.34 196.992,170.047 196.992,170.047L196.819,170.025C194.125,169.67 160.165,165.575 125.55,179.848ZM876.465,148.788C875.253,140.191 872.604,131.249 868.55,122.317C872.79,131.336 875.507,140.302 876.465,148.788ZM636.968,67.078C632.455,59.767 626.37,52.471 618.591,45.74C627.058,52.458 633.412,59.75 636.968,67.078ZM830.233,73.639C814.235,60.456 794.248,49.212 770.413,41.637C761.569,38.826 752.892,36.944 744.475,35.836C730.805,34.037 717.803,34.272 705.832,35.868C719.737,33.548 733.39,33.475 746.563,35.21C778.577,39.424 807.696,54.337 830.233,73.639Z"/>
    <path fill="#FFFFFF" d="M546.485,261.415C546.455,261.429 546.424,261.444 546.394,261.458C546.389,261.461 546.389,261.461 546.385,261.46L546.485,261.415ZM546.485,261.415C547.832,260.79 549.176,260.186 550.513,259.608L546.485,261.415Z"/>
    <path fill="#FFFFFF" d="M951.448,338.201C967.066,346.748 978.94,360.259 984.357,371.461C991.028,385.267 1009.88,464.746 938.38,509.182C874.197,549.074 824.465,524.364 805.506,511.387C784.609,543.131 735.375,571.199 677.333,565.042C620.575,558.985 591.016,530.312 576.286,507.76C561.52,528.554 541.685,537.599 526.615,541.516C511.159,545.534 494.383,545.742 479.342,542.424C490.897,565.908 498.729,604.571 467.806,641.145C445.634,667.37 414.398,675.189 392.099,677.128C370.311,679.025 349.702,675.811 337.482,671.143C324.069,682.794 288.704,704.331 243.88,698.43C233.085,697.009 221.742,694 210.023,688.874C158.439,666.305 147.126,623.344 154.77,594.547C111.783,593.541 77.23,581.082 51.934,557.44C20.86,528.397 4.976,481.26 9.445,431.35C14.204,378.198 55.606,354.896 74.754,346.889C60.508,328.89 30.467,280.339 64.437,223.27C98.829,165.496 163.458,161.805 188.094,162.668C186.255,144.263 189.011,101.243 245.926,69.359C313.249,31.644 373.035,54.386 397.781,70.781C414.353,45.661 452.387,10.329 510.461,7.925C585.849,4.8 622.364,35.827 637.949,55.854C660.603,36.887 713.288,16.387 772.778,35.297C839.209,56.412 875.616,104.13 883.278,143.714C947.161,162.729 985.435,206.49 988.544,264.393C990.859,307.537 971.373,327.501 951.448,338.201ZM929.36,498.056C991.957,459.153 975.932,387.913 970.382,376.422C965.636,366.6 951.481,350.075 931.943,344.8L911.518,339.288L930.807,332.122C953.179,323.814 975.727,309.291 973.33,264.596C971.652,233.374 956.575,177.653 874.439,155.23L869.539,153.891L868.907,149.406C863.81,113.255 830.649,67.872 768.052,47.976C704.505,27.778 653.597,58.332 643.204,71.132L636.222,79.733L630.312,70.164C620.597,54.426 589.582,18.173 511.669,21.398C440.094,24.362 408.415,81.914 407.103,84.363L402.557,92.834L394.883,85.976C379.908,72.608 321.954,42.965 254.369,80.828C189.472,117.183 204.179,167.969 204.337,168.478L207.359,178.33L196.014,176.705C192.739,176.258 115.819,166.267 77.965,229.863C39.999,293.638 91.82,344.913 92.351,345.421L100.424,353.227L89.31,356.328C86.907,357.008 29.915,373.837 24.63,432.853C20.503,478.949 34.782,522.122 62.831,548.336C87.022,570.947 121.342,581.965 164.831,581.071L176.905,580.826L172.295,590.588C161.421,613.62 167.914,655.605 216.409,676.818C274.503,702.221 322.493,666.638 329.535,658.577L333.699,653.813L339.597,657.183C352.785,664.72 419.879,674.98 455.506,632.841C490.702,591.211 468.011,546.744 456.297,533.124L432.423,505.365L466.09,523.416C481.09,531.455 502.99,533.478 521.89,528.564C536.577,524.747 556.747,514.997 569.395,490.245L576.355,476.635L583.311,490.646C593.267,510.709 618.898,545.364 678.656,551.649C737.765,557.918 782.891,523.943 796.055,497.816L800.455,489.081L808.318,496.037C816.887,503.614 862.973,539.314 929.36,498.056Z"/>
    <path fill="#FFFFFF" d="M164.45,581.093C168.821,580.604 195.946,573.542 211.278,553.997C221.78,540.606 224.635,523.998 219.76,504.639C219.76,504.639 247.605,532.462 221.626,564.658C202.884,586.185 171.934,594.399 165.717,594.554L164.791,581.073C164.703,581.077 164.591,581.078 164.45,581.093ZM164.45,581.093C164.448,581.093 164.447,581.094 164.445,581.094C164.447,581.094 164.448,581.093 164.45,581.093Z"/>
    <path fill="#FFFFFF" d="M213.575,553.555C222.582,551.317 231.34,551.047 239.325,552.226C255.233,554.572 268.058,562.655 273.619,572.298C273.619,572.298 245.37,554.286 218.136,566.552L213.575,553.555Z"/>
    <path fill="#FFFFFF" d="M310.41,312.188C362.408,280.533 430.339,286.541 475.605,326.802L464.987,336.16C425.111,300.696 365.213,295.443 319.316,323.38C275.107,350.295 256.595,417.442 280.48,464.26C307.052,516.356 357.867,539.991 394.332,536.42C394.332,536.42 358.776,552.43 324.184,531.648C299.807,517 279.907,495.504 266.63,469.474C239.543,416.376 259.999,342.877 310.41,312.188Z"/>
    <path fill="#FFFFFF" d="M330.494,520.536C338.379,526.429 342.731,534.458 344.7,543.023C348.021,570.08 326.463,580.957 326.463,580.957C333.323,569.603 338.064,541.076 322.267,529.275L330.494,520.536Z"/>
    <path fill="#FFFFFF" d="M170.498,451.168C205.064,437.661 243.653,440.477 276.359,458.882L268.492,470.196C240.229,454.292 206.893,451.865 177.027,463.541C153.301,472.81 139.19,488.122 137.509,498.456C137.509,498.456 134.627,468.393 170.498,451.168Z"/>
    <path fill="#FFFFFF" d="M122.051,418.399C124.266,425.291 153.678,451.572 184.056,447.87L186.251,459.326C180.771,459.993 175.279,459.883 169.892,459.174C162.413,458.189 155.13,456.047 148.357,453.205C119.151,440.422 122.051,418.399 122.051,418.399Z"/>
    <path fill="#FFFFFF" d="M83.89,343.578C93.152,340.443 119.954,335.902 149.393,342.543C189.622,353.407 200.664,388.305 200.664,388.305C157.717,337.275 90.386,355.973 89.732,356.197L83.89,343.578Z"/>
    <path fill="#FFFFFF" d="M403.057,462.599C412.109,479.736 430.231,504.115 465.183,522.924L466.14,523.442L458.465,534.863L457.586,534.391C419.225,513.745 399.276,486.879 389.295,467.98C380.508,451.336 378.406,434.828 379.826,419.97C384.383,385.186 414.727,373.954 414.727,373.954C402.573,387.065 383.727,425.985 403.057,462.599Z"/>
    <path fill="#FFFFFF" d="M322.397,408.686C322.397,408.686 360.323,391.713 392.009,422.14L382.306,429.591C369.382,416.512 339.485,407.613 322.397,408.686Z"/>
    <path fill="#FFFFFF" d="M690.853,274.028C735.995,311.348 753.013,373.417 740.587,407.967C734.08,426.056 723.599,439.419 712.073,449.263C685.57,471.905 649.16,462.799 649.16,462.799C651.515,462.516 707.46,455.197 726.054,403.494C736.835,373.524 720.838,316.972 680.654,283.744C656.633,263.884 614.846,244.873 552.154,267.086C489.758,289.191 475.391,326.522 474.322,353.951C472.725,395.045 499.768,434.915 514.438,442.054C514.438,442.054 481.579,436.735 467.588,400.693C461.928,385.953 458.458,369.521 459.1,353.048C460.315,321.737 476.396,279.231 546.1,254.536C616.21,229.702 663.52,251.425 690.853,274.028Z"/>
    <path fill="#FFFFFF" d="M574.041,405.452C577.929,399.868 582.591,394.925 588.017,390.626C622.566,366.135 666.154,382.688 666.154,382.688C627.495,382.845 600.885,392.975 587.077,412.802C566.225,442.734 580.371,485.117 583.223,490.479L569.482,495.902C565.551,488.513 549.669,440.434 574.041,405.452Z"/>
    <path fill="#FFFFFF" d="M586.976,325.57C586.976,325.57 612.868,328.978 618.672,355.583C621.052,372.019 615.594,386.416 603.3,396.116L594.44,387.377C606.107,378.168 607.013,365.603 605.724,356.686C603.595,342.023 594.518,329.351 586.976,325.57Z"/>
    <path fill="#FFFFFF" d="M708.183,440.658C738.696,458.976 721.687,492.93 721.687,492.93C725.772,471.083 707.178,453.368 701.816,450.565L708.183,440.658Z"/>
    <path fill="#FFFFFF" d="M793.227,434.541L805.895,427.418C827.426,456.566 813.55,497.025 809.929,503.784L796.126,497.678C798.539,493.179 810.551,457.997 793.227,434.541Z"/>
    <path fill="#FFFFFF" d="M843.106,432.778C872.723,432.517 895.844,420.562 906.531,399.983C906.531,399.983 907.929,428.423 880.172,440.043C869.358,444.009 857.092,446.148 843.754,446.269C837.448,446.323 831.171,445.926 825.002,445.114C790.398,440.559 759.118,422.884 743.733,398.136C712.965,348.644 746.651,293.716 782.802,273.093C802.223,262.012 823.22,255.668 842.44,254.262C876.032,253.772 883.4,276.414 883.4,276.414C864.944,262.029 824.51,265.578 791.345,284.501C760.84,301.905 731.064,350.173 757.023,391.933C772.169,416.297 807.583,433.1 843.106,432.778Z"/>
    <path fill="#FFFFFF" d="M901.023,427.592C919.082,437.647 914.375,459.502 914.375,459.502C914.382,455.074 911.352,449.929 905.845,445.02C898.256,438.251 889.946,435.226 888.088,435.21C888.281,435.213 882.328,424.936 882.328,424.936C886.457,422.572 892.743,423.469 901.023,427.592Z"/>
    <path fill="#FFFFFF" d="M841.501,320.927C869.016,346.791 923.886,334.774 930.727,332.154L937.161,344.56C930.833,346.984 903.788,353.308 876.093,349.661C844.437,342.756 841.501,320.927 841.501,320.927Z"/>
    <path fill="#FFFFFF" d="M856.8,381.78C856.8,381.78 854.677,356.846 873.976,346.331C881.356,342.487 889.96,339.571 899.7,338.12L902.276,349.522C873.542,353.801 859.967,372.495 856.8,381.78Z"/>
    <path fill="#FFFFFF" d="M609.849,376.237C641.704,348.782 649.339,320.22 649.339,320.22C651.29,328.519 647.387,350.181 634.449,367.575C629.624,374.059 623.544,379.948 616.045,384.331L609.849,376.237Z"/>
    <path fill="#FFFFFF" d="M834.92,234.947C840.865,227.575 848.327,221.775 857.035,217.633C881.755,204.76 908.313,222.518 908.313,222.518C888.901,219.963 862.264,221.245 845.624,241.87L834.92,234.947Z"/>
    <path fill="#FFFFFF" d="M831.928,192.93C831.928,192.93 855.516,211.969 848.036,239.116C840.815,259.861 823.515,271.361 810.178,275.615L804.608,262.904C806.453,262.317 849.598,247.868 831.928,192.93Z"/>
    <path fill="#FFFFFF" d="M730.919,99.579C730.919,99.579 763.085,113.201 772.811,151.075C776.7,170.409 776.278,191.455 771.605,214.455C761.626,263.558 702.305,281.445 679.251,280.632L679.359,267.156C693.228,267.644 747.798,255.006 756.611,211.647C765.902,165.932 757.739,130.323 730.919,99.579Z"/>
    <path fill="#FFFFFF" d="M762.546,160.453C800.164,134.33 864.452,138.777 878.343,142.312L874.583,155.268C864.309,152.659 804.878,148.468 772.188,171.172L762.546,160.453Z"/>
    <path fill="#FFFFFF" d="M630.258,70.076L643.679,64.083C644.1,64.79 673.076,114.431 662.623,161.021C654.783,197.124 613.774,203.603 613.774,203.603C683.262,160.803 630.799,70.977 630.258,70.076Z"/>
    <path fill="#FFFFFF" d="M659.485,165.881C663.907,186.681 682.077,207.853 695.622,213.847C695.622,213.847 651.903,202.29 646.659,167.659L659.485,165.881Z"/>
    <path fill="#FFFFFF" d="M539.576,186.699C541.122,210.599 554.444,240.07 576.078,247.622L570.893,260.15C542.825,250.352 526.242,215.953 524.367,187.035C523.494,173.554 526.287,151.23 536.041,131.967C553.129,100.656 581.582,110.001 581.582,110.001C548.902,118.029 538.098,163.918 539.576,186.699Z"/>
    <path fill="#FFFFFF" d="M493.292,103.391C493.292,103.391 525.2,108.011 535.526,135.513C538.424,143.235 540.253,152.053 540.204,161.981L527.145,161.553C527.336,122.786 493.632,103.579 493.292,103.391Z"/>
    <path fill="#FFFFFF" d="M276.948,160.286C277.399,160.303 311.64,161.895 336.502,187.86C344.788,196.516 352.036,207.878 356.639,222.792C374.898,281.945 349.413,306.144 319.144,323.482C309.497,329.013 295.604,330.674 280.619,328.701C269.215,327.2 257.176,323.595 245.876,317.989C231.133,310.674 218.952,300.706 209.701,288.689C189.323,255.458 204.276,225.968 204.276,225.968C204.379,274.859 234.842,297.268 252.991,306.273C276.57,317.97 300.259,318.002 310.581,312.087C335.503,297.81 358.45,279.395 341.951,225.95C326.56,176.089 276.948,160.286 276.948,160.286Z"/>
    <path fill="#FFFFFF" d="M351.881,137.831C351.881,137.831 334.475,159.829 340.948,195.549L328.057,197.016C320.399,154.765 351.881,137.831 351.881,137.831Z"/>
    <path fill="#FFFFFF" d="M153.949,295.541C153.949,295.541 171.351,271.232 201.075,276.773C207.935,278.053 215.116,280.367 222.406,284.126L216.118,294.07C184.328,277.698 154.249,295.363 153.949,295.541Z"/>
    <path fill="#FFFFFF" d="M197.109,163.312C203.351,163.568 225.129,169.866 245.94,182.735C292.963,211.559 273.952,244.742 273.952,244.742C272.306,198.284 202.893,177.207 196.827,176.78L197.109,163.312Z"/>
    <path fill="#FFFFFF" d="M405.259,76.415C409.176,79.606 443.528,109.023 443.781,158.317C444.017,204.496 406.987,221.615 406.987,221.615C407.205,221.492 428.805,207.829 428.547,157.937C428.324,114.494 398.54,88.97 395.144,86.2L405.259,76.415Z"/>
    <path fill="#FFFFFF" d="M442.447,165.707C445.65,183.47 472.051,205.798 482.678,207.829C482.678,207.829 438.374,205.199 429.554,167.162L442.447,165.707Z"/>
    <path fill="#FFFFFF" d="M528.269,208.508L543.276,206.633C543.59,208.225 550.613,245.979 521.528,275.478C495.28,302.101 458.033,314.248 418.869,309.091C417.654,308.932 416.445,308.757 415.226,308.561C378.701,302.768 354.675,288.29 347.06,276.512L360.223,270.105C364.706,277.043 384.206,290.018 417.431,295.288C452.627,300.856 486.324,290.348 509.913,266.423C534.272,241.715 528.331,208.838 528.269,208.508Z"/>
    <path fill="#FFFFFF" d="M346.454,612.287C346.454,612.287 364.459,630.137 350.49,655.895C346.095,662.684 342.024,666.615 341.627,666.989L330.334,657.619C330.525,657.439 349.385,639.196 346.454,612.287Z"/>
    <path fill="#FFFFFF" d="M746.169,21.499C756.017,22.795 765.878,25.001 775.478,28.052C846.582,50.652 881.597,100.292 890.828,137.976C955.354,158.86 994.038,204.652 997.236,264.281C999.012,297.296 988.628,322.18 966.359,338.423C979.244,347.991 988.032,359.715 992.343,368.627C996.839,377.939 1002.72,402.821 999.332,429.929C996.187,455.119 983.953,490.419 943.534,515.538C921.02,529.53 898.079,537.216 875.214,538.444C874.524,557.481 866.669,577.821 852.635,596.528C833.067,622.623 803.096,642.513 769.991,651.49C766.899,656.306 763.357,660.861 760.17,664.955C752.191,675.212 745.299,684.072 745.21,693.867C745.015,715.994 760.064,728.832 760.639,729.311L768.69,735.812C770.809,737.518 771.894,740.002 771.599,742.476C771.308,744.951 769.679,747.105 767.227,748.26L695.574,782.012C693.919,782.79 692.07,783.039 690.288,782.805C688.153,782.524 686.117,781.546 684.646,779.964L680.573,775.585C666.603,760.562 658.245,747.077 650.775,727.481C649.287,723.582 648.322,719.717 647.301,715.615C643.246,699.342 639.415,683.975 602.531,669.984C582.529,662.395 566.583,652.959 555.043,641.893C536.815,644.647 517.346,644.794 498.397,642.299C492.15,641.477 486.064,640.365 480.225,638.984C478.528,641.351 476.724,643.657 474.834,645.894C450.844,674.272 417.216,682.715 393.226,684.799C381.934,685.782 370.071,685.527 358.921,684.059C351.917,683.137 345.364,681.766 339.649,680.041C319.088,696.008 283.075,711.345 242.877,706.053C230.564,704.432 218.283,700.97 206.372,695.761C181.07,684.694 162.338,667.791 152.203,646.89C145.306,632.663 142.634,616.673 144.507,601.785C139.806,601.472 135.2,601.017 130.725,600.428C96.286,595.894 67.686,583.183 45.707,562.646C12.903,531.987 -3.897,482.581 0.767,430.49C5.257,380.339 40.511,354.902 62.285,343.855C46.313,320.624 24.457,273.681 56.708,219.503C89.53,164.361 147.812,155.406 179.02,154.885C179.027,132.85 187.435,92.873 241.101,62.81C273.272,44.788 306.984,37.939 341.311,42.462C365.525,45.65 384.1,53.896 395.041,59.951C402.448,50.197 414.871,36.551 433.253,24.573C456.287,9.566 482.031,1.374 509.768,0.225C523.796,-0.356 537.288,0.189 549.873,1.846C595.648,7.874 623.192,27.2 639.177,44.655C661.749,29.219 700.506,15.487 746.169,21.499ZM745.165,29.122C697.38,22.831 657.024,39.885 637.949,55.854C625.287,39.581 598.795,16.044 548.865,9.469C537.348,7.953 524.59,7.339 510.461,7.925C452.387,10.329 414.353,45.661 397.781,70.781C385.798,62.844 365.594,53.414 340.307,50.085C313.364,46.538 280.651,49.905 245.926,69.359C189.011,101.247 186.254,144.267 188.094,162.668C163.458,161.805 98.829,165.496 64.437,223.27C30.466,280.339 60.508,328.89 74.754,346.889C55.606,354.896 14.204,378.198 9.445,431.35C4.976,481.26 20.86,528.397 51.934,557.44C72.538,576.699 99.287,588.534 131.729,592.805C139.117,593.778 146.795,594.358 154.77,594.547C147.126,623.344 158.439,666.305 210.023,688.874C221.738,693.999 233.085,697.009 243.88,698.43C288.704,704.331 324.069,682.794 337.482,671.143C343.311,673.373 351.058,675.269 359.925,676.436C369.639,677.715 380.709,678.122 392.095,677.127C414.398,675.189 445.634,667.37 467.806,641.145C470.947,637.429 473.669,633.693 476.048,629.954C483.187,631.956 491.044,633.576 499.401,634.676C517.749,637.092 538.341,637.065 558.132,633.497C566.971,643.025 581.569,653.745 605.736,662.914C646.914,678.533 651.633,697.476 655.797,714.19C656.764,718.071 657.68,721.736 659.01,725.23C666.101,743.826 674.012,756.601 687.22,770.803L691.292,775.182L762.945,741.43L754.889,734.933C754.703,734.781 736.275,719.609 736.507,693.555C736.616,681.44 744.547,671.243 752.948,660.444C756.865,655.411 760.818,650.309 763.97,644.946C800.832,635.856 828.982,613.927 845.338,592.12C860.499,571.901 867.745,550.109 866.404,530.89C873.884,531.027 881.855,530.414 890.261,528.779C905.055,525.902 921.196,519.861 938.38,509.182C1009.87,464.746 991.028,385.267 984.357,371.461C978.94,360.259 967.066,346.748 951.448,338.201C971.373,327.501 990.859,307.537 988.544,264.393C985.435,206.49 947.161,162.729 883.274,143.713C875.616,104.13 839.209,56.412 772.778,35.297C763.372,32.308 754.136,30.303 745.165,29.122Z"/>
</svg>
